<svg width="32" height="32" viewBox="0 0 32 32" fill="none" xmlns="http://www.w3.org/2000/svg">
  <!-- Paper Plane Arrow Icon -->
  <path d="M4 8C4 6.34315 5.34315 5 7 5L20 5C21.1046 5 22 5.89543 22 7V7C22 8.10457 21.1046 9 20 9L12 9L4 24V8Z" fill="#FF6B6B"/>
  <path d="M4 24L12 9L20 9C21.1046 9 22 9.89543 22 11V11C22 12.1046 21.1046 13 20 13L9 13C6.23858 13 4 15.2386 4 18V24Z" fill="#FF6B6B"/>
  <path d="M6 27C5.44772 27 5 26.5523 5 26C5 25.7239 5.22386 25.5 5.5 25L4 24L12 9L19 9C20.1046 9 21 9.89543 21 11V11C21 12.1046 20.1046 13 19 13L13 13L6 27Z" fill="#FF6B6B" fill-opacity="0.7"/>
</svg>
